<svg width="14" height="14" viewBox="0 0 14 14" fill="none" xmlns="http://www.w3.org/2000/svg">
<g opacity="0.3">
<rect width="14" height="14" rx="3" fill="#EC174F"/>
<g clip-path="url(#clip0)">
<path d="M11.063 5.7149C11.0327 5.78759 10.962 5.83502 10.8834 5.83502H8.75343V10.6945C8.75343 10.8018 8.66634 10.8889 8.55904 10.8889H5.44897C5.34167 10.8889 5.25458 10.8018 5.25458 10.6945V5.83501H3.11641C3.03789 5.83501 2.96713 5.78757 2.9368 5.71526C2.90686 5.64257 2.92319 5.55898 2.97879 5.50338L6.85666 1.61268C6.8932 1.57615 6.94258 1.55553 6.99428 1.55553C7.04598 1.55553 7.09537 1.57615 7.1319 1.6123L11.0211 5.503C11.0767 5.55862 11.0934 5.64219 11.063 5.7149Z" fill="white"/>
</g>
</g>
<defs>
<clipPath id="clip0">
<rect width="9.33333" height="9.33333" transform="matrix(1 0 0 -1 2.33334 10.8889)" fill="white"/>
</clipPath>
</defs>
</svg>
